<svg xmlns="http://www.w3.org/2000/svg" viewBox="0 0 1180 760" width="1180" height="760" role="img" aria-label="Polyphemus secure Bedrock RAG architecture">
<defs><marker id="arrow" viewBox="0 0 10 10" refX="9" refY="5" markerWidth="7" markerHeight="7" orient="auto-start-end"><path d="M0,0 L10,5 L0,10 z" fill="#334155"/></marker></defs>
<rect x="0" y="0" width="1180" height="760" fill="#ffffff"/>
<text x="590.0" y="30" text-anchor="middle" font-family="Helvetica,Arial,sans-serif" font-size="20" font-weight="700" fill="#0f172a">Polyphemus — Secure Bedrock RAG Reference Architecture</text>
<rect x="40" y="70" width="180" height="60" rx="10" ry="10" fill="#e0f2fe" stroke="#334155" stroke-width="1.5"/>
<text x="130.0" y="88" text-anchor="middle" font-family="Helvetica,Arial,sans-serif" font-size="13" font-weight="600" fill="#0f172a">Client / Caller</text>
<text x="130.0" y="106" text-anchor="middle" font-family="Helvetica,Arial,sans-serif" font-size="10.5" fill="#475569">bearer JWT (Cognito / Entra)</text>
<rect x="300" y="70" width="200" height="60" rx="10" ry="10" fill="#dbeafe" stroke="#334155" stroke-width="1.5"/>
<text x="400.0" y="88" text-anchor="middle" font-family="Helvetica,Arial,sans-serif" font-size="13" font-weight="600" fill="#0f172a">API Gateway (HTTP API)</text>
<text x="400.0" y="106" text-anchor="middle" font-family="Helvetica,Arial,sans-serif" font-size="10.5" fill="#475569">JWT authorizer — authN</text>
<rect x="580" y="70" width="200" height="60" rx="10" ry="10" fill="#dcfce7" stroke="#334155" stroke-width="1.5"/>
<text x="680.0" y="88" text-anchor="middle" font-family="Helvetica,Arial,sans-serif" font-size="13" font-weight="600" fill="#0f172a">Lambda: pipeline</text>
<text x="680.0" y="106" text-anchor="middle" font-family="Helvetica,Arial,sans-serif" font-size="10.5" fill="#475569">orchestrator, scoped IAM</text>
<rect x="300" y="165" width="200" height="50" rx="10" ry="10" fill="#dbeafe" stroke="#334155" stroke-width="1.5"/>
<text x="400.0" y="183" text-anchor="middle" font-family="Helvetica,Arial,sans-serif" font-size="13" font-weight="600" fill="#0f172a">Cognito / Entra ID</text>
<text x="400.0" y="201" text-anchor="middle" font-family="Helvetica,Arial,sans-serif" font-size="10.5" fill="#475569">identity provider</text>
<line x1="220" y1="100" x2="300" y2="100" stroke="#334155" stroke-width="1.6" marker-end="url(#arrow)"/>
<text x="260.0" y="94.0" text-anchor="middle" font-family="Helvetica,Arial,sans-serif" font-size="10" fill="#475569">request</text>
<line x1="500" y1="100" x2="580" y2="100" stroke="#334155" stroke-width="1.6" marker-end="url(#arrow)"/>
<text x="540.0" y="94.0" text-anchor="middle" font-family="Helvetica,Arial,sans-serif" font-size="10" fill="#475569">claims</text>
<line x1="400" y1="165" x2="400" y2="130" stroke="#334155" stroke-width="1.6" marker-end="url(#arrow)"/>
<text x="400.0" y="141.5" text-anchor="middle" font-family="Helvetica,Arial,sans-serif" font-size="10" fill="#475569">verify token</text>
<rect x="580" y="165" width="260" height="34" rx="6" ry="6" fill="#dcfce7" stroke="#334155" stroke-width="1.5"/>
<text x="710.0" y="186.0" text-anchor="middle" font-family="Helvetica,Arial,sans-serif" font-size="13" font-weight="600" fill="#0f172a">1. identity -&gt; UserContext</text>
<line x1="710" y1="130" x2="710" y2="165" stroke="#334155" stroke-width="1.6" marker-end="url(#arrow)"/>

<rect x="580" y="213" width="260" height="34" rx="6" ry="6" fill="#dcfce7" stroke="#334155" stroke-width="1.5"/>
<text x="710.0" y="234.0" text-anchor="middle" font-family="Helvetica,Arial,sans-serif" font-size="13" font-weight="600" fill="#0f172a">2. build authz filter (RBAC+ABAC)</text>
<line x1="710" y1="199" x2="710" y2="213" stroke="#334155" stroke-width="1.6" marker-end="url(#arrow)"/>

<rect x="580" y="261" width="260" height="34" rx="6" ry="6" fill="#dcfce7" stroke="#334155" stroke-width="1.5"/>
<text x="710.0" y="282.0" text-anchor="middle" font-family="Helvetica,Arial,sans-serif" font-size="13" font-weight="600" fill="#0f172a">3. vector query (FILTERED)</text>
<line x1="710" y1="247" x2="710" y2="261" stroke="#334155" stroke-width="1.6" marker-end="url(#arrow)"/>

<rect x="580" y="309" width="260" height="34" rx="6" ry="6" fill="#dcfce7" stroke="#334155" stroke-width="1.5"/>
<text x="710.0" y="330.0" text-anchor="middle" font-family="Helvetica,Arial,sans-serif" font-size="13" font-weight="600" fill="#0f172a">4. post-retrieval re-check</text>
<line x1="710" y1="295" x2="710" y2="309" stroke="#334155" stroke-width="1.6" marker-end="url(#arrow)"/>

<rect x="580" y="357" width="260" height="34" rx="6" ry="6" fill="#dcfce7" stroke="#334155" stroke-width="1.5"/>
<text x="710.0" y="378.0" text-anchor="middle" font-family="Helvetica,Arial,sans-serif" font-size="13" font-weight="600" fill="#0f172a">5. injection scan + neutralize</text>
<line x1="710" y1="343" x2="710" y2="357" stroke="#334155" stroke-width="1.6" marker-end="url(#arrow)"/>

<rect x="580" y="405" width="260" height="34" rx="6" ry="6" fill="#dcfce7" stroke="#334155" stroke-width="1.5"/>
<text x="710.0" y="426.0" text-anchor="middle" font-family="Helvetica,Arial,sans-serif" font-size="13" font-weight="600" fill="#0f172a">6. PII redaction (ctx + prompt)</text>
<line x1="710" y1="391" x2="710" y2="405" stroke="#334155" stroke-width="1.6" marker-end="url(#arrow)"/>

<rect x="580" y="453" width="260" height="34" rx="6" ry="6" fill="#dcfce7" stroke="#334155" stroke-width="1.5"/>
<text x="710.0" y="474.0" text-anchor="middle" font-family="Helvetica,Arial,sans-serif" font-size="13" font-weight="600" fill="#0f172a">7. hardened prompt assembly</text>
<line x1="710" y1="439" x2="710" y2="453" stroke="#334155" stroke-width="1.6" marker-end="url(#arrow)"/>

<rect x="40" y="320" width="220" height="60" rx="10" ry="10" fill="#fef9c3" stroke="#334155" stroke-width="1.5"/>
<text x="150.0" y="338" text-anchor="middle" font-family="Helvetica,Arial,sans-serif" font-size="13" font-weight="600" fill="#0f172a">S3 (documents)</text>
<text x="150.0" y="356" text-anchor="middle" font-family="Helvetica,Arial,sans-serif" font-size="10.5" fill="#475569">SSE-KMS, block public, TLS-only</text>
<rect x="40" y="410" width="220" height="70" rx="10" ry="10" fill="#fef9c3" stroke="#334155" stroke-width="1.5"/>
<text x="150.0" y="428" text-anchor="middle" font-family="Helvetica,Arial,sans-serif" font-size="13" font-weight="600" fill="#0f172a">OpenSearch Serverless</text>
<text x="150.0" y="446" text-anchor="middle" font-family="Helvetica,Arial,sans-serif" font-size="10.5" fill="#475569">vector index + ACL metadata (alt: Aurora+pgvector)</text>
<rect x="40" y="510" width="220" height="55" rx="10" ry="10" fill="#fef9c3" stroke="#334155" stroke-width="1.5"/>
<text x="150.0" y="528" text-anchor="middle" font-family="Helvetica,Arial,sans-serif" font-size="13" font-weight="600" fill="#0f172a">Comprehend (aws mode)</text>
<text x="150.0" y="546" text-anchor="middle" font-family="Helvetica,Arial,sans-serif" font-size="10.5" fill="#475569">PII NER — regex fallback offline</text>
<rect x="900" y="320" width="230" height="70" rx="10" ry="10" fill="#f3e8ff" stroke="#334155" stroke-width="1.5"/>
<text x="1015.0" y="338" text-anchor="middle" font-family="Helvetica,Arial,sans-serif" font-size="13" font-weight="600" fill="#0f172a">Amazon Bedrock</text>
<text x="1015.0" y="356" text-anchor="middle" font-family="Helvetica,Arial,sans-serif" font-size="10.5" fill="#475569">embeddings + text model + Guardrails</text>
<rect x="900" y="470" width="230" height="70" rx="10" ry="10" fill="#fee2e2" stroke="#334155" stroke-width="1.5"/>
<text x="1015.0" y="488" text-anchor="middle" font-family="Helvetica,Arial,sans-serif" font-size="13" font-weight="600" fill="#0f172a">Audit trail</text>
<text x="1015.0" y="506" text-anchor="middle" font-family="Helvetica,Arial,sans-serif" font-size="10.5" fill="#475569">CloudWatch Logs + S3 (object lock)</text>
<line x1="300" y1="445" x2="578" y2="261" stroke="#334155" stroke-width="1.6" marker-end="url(#arrow)"/>
<text x="439.0" y="347.0" text-anchor="middle" font-family="Helvetica,Arial,sans-serif" font-size="10" fill="#475569">filtered retrieval</text>
<line x1="260" y1="350" x2="578" y2="200" stroke="#334155" stroke-width="1.6" stroke-dasharray="5,4" marker-end="url(#arrow)"/>
<text x="419.0" y="269.0" text-anchor="middle" font-family="Helvetica,Arial,sans-serif" font-size="10" fill="#475569">ingest (seed)</text>
<line x1="578" y1="430" x2="262" y2="535" stroke="#334155" stroke-width="1.6" marker-end="url(#arrow)"/>
<text x="420.0" y="476.5" text-anchor="middle" font-family="Helvetica,Arial,sans-serif" font-size="10" fill="#475569">redaction NER</text>
<line x1="840" y1="200" x2="900" y2="350" stroke="#334155" stroke-width="1.6" marker-end="url(#arrow)"/>
<text x="870.0" y="269.0" text-anchor="middle" font-family="Helvetica,Arial,sans-serif" font-size="10" fill="#475569">invoke (embed/generate)</text>
<line x1="900" y1="355" x2="842" y2="235" stroke="#334155" stroke-width="1.6" marker-end="url(#arrow)"/>
<text x="871.0" y="289.0" text-anchor="middle" font-family="Helvetica,Arial,sans-serif" font-size="10" fill="#475569">grounded answer</text>
<line x1="780" y1="470" x2="900" y2="500" stroke="#334155" stroke-width="1.6" marker-end="url(#arrow)"/>
<text x="840.0" y="479.0" text-anchor="middle" font-family="Helvetica,Arial,sans-serif" font-size="10" fill="#475569">write record</text>
<rect x="20" y="300" width="260" height="285" rx="14" ry="14" fill="none" stroke="#b91c1c" stroke-width="2.2" stroke-dasharray="8,5"/>
<text x="150" y="600" text-anchor="middle" font-family="Helvetica,Arial,sans-serif" font-size="11" font-weight="700" fill="#b91c1c">UNTRUSTED CONTENT BOUNDARY</text>
<text x="150" y="616" text-anchor="middle" font-family="Helvetica,Arial,sans-serif" font-size="9.5" fill="#b91c1c">retrieved document text — never trusted as instructions</text>
<rect x="285" y="55" width="855" height="545" rx="16" ry="16" fill="none" stroke="#94a3b8" stroke-width="1.6" stroke-dasharray="3,4"/>
<text x="292" y="72" font-family="Helvetica,Arial,sans-serif" font-size="10" fill="#64748b">AWS account / service perimeter (internet boundary at API Gateway)</text>
<text x="40" y="640" font-family="Helvetica,Arial,sans-serif" font-size="13" font-weight="700" fill="#0f172a">Security control classes</text>
<rect x="40" y="646" width="14" height="14" rx="3" fill="#1d4ed8"/>
<text x="62" y="657" font-family="Helvetica,Arial,sans-serif" font-size="11.5" fill="#0f172a">Authentication — JWT / OIDC validation</text>
<rect x="600" y="646" width="14" height="14" rx="3" fill="#059669"/>
<text x="622" y="657" font-family="Helvetica,Arial,sans-serif" font-size="11.5" fill="#0f172a">Authorization — query-time filter + post-retrieval re-check</text>
<rect x="40" y="668" width="14" height="14" rx="3" fill="#ca8a04"/>
<text x="62" y="679" font-family="Helvetica,Arial,sans-serif" font-size="11.5" fill="#0f172a">Confidentiality — SSE-KMS + PII redaction</text>
<rect x="600" y="668" width="14" height="14" rx="3" fill="#b91c1c"/>
<text x="622" y="679" font-family="Helvetica,Arial,sans-serif" font-size="11.5" fill="#0f172a">Integrity — prompt-injection defense (untrusted content boundary)</text>
<rect x="40" y="690" width="14" height="14" rx="3" fill="#7c3aed"/>
<text x="62" y="701" font-family="Helvetica,Arial,sans-serif" font-size="11.5" fill="#0f172a">Accountability — structured audit trail</text>
<rect x="600" y="690" width="14" height="14" rx="3" fill="#0f766e"/>
<text x="622" y="701" font-family="Helvetica,Arial,sans-serif" font-size="11.5" fill="#0f172a">Least privilege — scoped IAM roles</text>
</svg>
